<svg width="454" height="29" viewBox="0 0 454 29" fill="none" xmlns="http://www.w3.org/2000/svg">
<rect y="14.5" width="454" height="1" fill="#F0F2F5"/>
<rect width="32" height="20" transform="translate(210.5 4.5)" fill="white"/>
<path d="M228.387 14.4091C228.387 15.483 228.193 16.411 227.806 17.1932C227.418 17.9754 226.886 18.5786 226.21 19.0028C225.534 19.4271 224.761 19.6392 223.893 19.6392C223.025 19.6392 222.252 19.4271 221.576 19.0028C220.9 18.5786 220.368 17.9754 219.98 17.1932C219.593 16.411 219.399 15.483 219.399 14.4091C219.399 13.3352 219.593 12.4072 219.98 11.625C220.368 10.8428 220.9 10.2396 221.576 9.81534C222.252 9.3911 223.025 9.17898 223.893 9.17898C224.761 9.17898 225.534 9.3911 226.21 9.81534C226.886 10.2396 227.418 10.8428 227.806 11.625C228.193 12.4072 228.387 13.3352 228.387 14.4091ZM227.194 14.4091C227.194 13.5275 227.047 12.7834 226.752 12.1768C226.46 11.5703 226.064 11.1113 225.563 10.7997C225.066 10.4882 224.509 10.3324 223.893 10.3324C223.277 10.3324 222.718 10.4882 222.218 10.7997C221.72 11.1113 221.324 11.5703 221.029 12.1768C220.738 12.7834 220.592 13.5275 220.592 14.4091C220.592 15.2907 220.738 16.0348 221.029 16.6413C221.324 17.2479 221.72 17.7069 222.218 18.0185C222.718 18.33 223.277 18.4858 223.893 18.4858C224.509 18.4858 225.066 18.33 225.563 18.0185C226.064 17.7069 226.46 17.2479 226.752 16.6413C227.047 16.0348 227.194 15.2907 227.194 14.4091ZM230.301 19.5V11.8636H231.435V13.017H231.514C231.654 12.6392 231.906 12.3326 232.27 12.0973C232.635 11.862 233.046 11.7443 233.503 11.7443C233.589 11.7443 233.697 11.746 233.826 11.7493C233.956 11.7526 234.053 11.7576 234.12 11.7642V12.9574C234.08 12.9474 233.989 12.9325 233.846 12.9126C233.707 12.8894 233.559 12.8778 233.404 12.8778C233.032 12.8778 232.701 12.9557 232.409 13.1115C232.121 13.264 231.892 13.4761 231.723 13.7479C231.558 14.0163 231.475 14.3229 231.475 14.6676V19.5H230.301Z" fill="#667185"/>
</svg>
