<svg width="16" height="17" viewBox="0 0 16 17" fill="none" xmlns="http://www.w3.org/2000/svg">
<path d="M12 5.27325C11.96 5.26659 11.9133 5.26659 11.8733 5.27325C10.9533 5.23992 10.22 4.48659 10.22 3.55325C10.22 2.59992 10.9866 1.83325 11.94 1.83325C12.8933 1.83325 13.66 2.60659 13.66 3.55325C13.6533 4.48659 12.92 5.23992 12 5.27325Z" stroke="#202020" stroke-width="1.5" stroke-linecap="round" stroke-linejoin="round"/>
<path d="M11.3133 10.1267C12.2267 10.28 13.2333 10.12 13.94 9.64669C14.88 9.02003 14.88 7.99336 13.94 7.36669C13.2267 6.89336 12.2067 6.73336 11.2933 6.89336" stroke="#202020" stroke-width="1.5" stroke-linecap="round" stroke-linejoin="round"/>
<path d="M3.97995 5.27325C4.01995 5.26659 4.06661 5.26659 4.10661 5.27325C5.02661 5.23992 5.75995 4.48659 5.75995 3.55325C5.75995 2.59992 4.99328 1.83325 4.03995 1.83325C3.08661 1.83325 2.31995 2.60659 2.31995 3.55325C2.32661 4.48659 3.05995 5.23992 3.97995 5.27325Z" stroke="#202020" stroke-width="1.5" stroke-linecap="round" stroke-linejoin="round"/>
<path d="M4.66663 10.1267C3.75329 10.28 2.74663 10.12 2.03996 9.64669C1.09996 9.02003 1.09996 7.99336 2.03996 7.36669C2.75329 6.89336 3.77329 6.73336 4.68663 6.89336" stroke="#202020" stroke-width="1.5" stroke-linecap="round" stroke-linejoin="round"/>
<path d="M7.99997 10.2532C7.95997 10.2466 7.9133 10.2466 7.8733 10.2532C6.9533 10.2199 6.21997 9.46657 6.21997 8.53323C6.21997 7.5799 6.98664 6.81323 7.93997 6.81323C8.8933 6.81323 9.65997 7.58657 9.65997 8.53323C9.6533 9.46657 8.91997 10.2266 7.99997 10.2532Z" stroke="#202020" stroke-width="1.5" stroke-linecap="round" stroke-linejoin="round"/>
<path d="M6.05998 12.3532C5.11998 12.9799 5.11998 14.0066 6.05998 14.6332C7.12665 15.3466 8.87331 15.3466 9.93998 14.6332C10.88 14.0066 10.88 12.9799 9.93998 12.3532C8.87998 11.6466 7.12665 11.6466 6.05998 12.3532Z" stroke="#202020" stroke-width="1.5" stroke-linecap="round" stroke-linejoin="round"/>
</svg>
